<mxfile host="app.diagrams.net" modified="2024-06-11T03:33:09.357Z" agent="Mozilla/5.0 (Windows NT 10.0; Win64; x64) AppleWebKit/537.36 (KHTML, like Gecko) Chrome/125.0.0.0 Safari/537.36" etag="uCwTVLVdsBZHK0sllfa_" version="24.5.2" type="device">
  <diagram name="Página-1" id="-KolAzJf-tk6aBX8-Q57">
    <mxGraphModel dx="2345" dy="964" grid="1" gridSize="10" guides="1" tooltips="1" connect="1" arrows="1" fold="1" page="1" pageScale="1" pageWidth="827" pageHeight="1169" math="0" shadow="0">
      <root>
        <mxCell id="0" />
        <mxCell id="1" parent="0" />
        <mxCell id="QvntJBY5M-mogorxampG-1" value="Módulo de Contratos" style="whiteSpace=wrap;strokeWidth=2;verticalAlign=top;" parent="1" vertex="1">
          <mxGeometry x="600" y="20" width="380" height="760" as="geometry" />
        </mxCell>
        <mxCell id="QvntJBY5M-mogorxampG-2" value="Enviar mensaje de incoherencia de fechas" style="whiteSpace=wrap;strokeWidth=2;" parent="1" vertex="1">
          <mxGeometry x="670" y="430" width="261" height="33" as="geometry" />
        </mxCell>
        <mxCell id="QvntJBY5M-mogorxampG-5" value="Gerente General" style="whiteSpace=wrap;strokeWidth=2;verticalAlign=top;" parent="1" vertex="1">
          <mxGeometry x="20" y="20" width="520" height="760" as="geometry" />
        </mxCell>
        <mxCell id="QvntJBY5M-mogorxampG-6" value="Inicio" style="whiteSpace=wrap;strokeWidth=2;" parent="1" vertex="1">
          <mxGeometry x="178" y="45" width="54" height="33" as="geometry" />
        </mxCell>
        <mxCell id="QvntJBY5M-mogorxampG-7" value="Ingreso a sección de nuevo contrato" style="whiteSpace=wrap;strokeWidth=2;" parent="1" vertex="1">
          <mxGeometry x="89" y="128" width="232" height="33" as="geometry" />
        </mxCell>
        <mxCell id="QvntJBY5M-mogorxampG-8" value="Ingresar datos del cliente" style="whiteSpace=wrap;strokeWidth=2;" parent="1" vertex="1">
          <mxGeometry x="108" y="290" width="249" height="33" as="geometry" />
        </mxCell>
        <mxCell id="QvntJBY5M-mogorxampG-9" value="Ingresar datos de las fechas de inicio fecha y fecha fin" style="whiteSpace=wrap;strokeWidth=2;" parent="1" vertex="1">
          <mxGeometry x="89" y="397" width="285" height="33" as="geometry" />
        </mxCell>
        <mxCell id="QvntJBY5M-mogorxampG-10" value="Ingreso de presupuesto" style="whiteSpace=wrap;strokeWidth=2;" parent="1" vertex="1">
          <mxGeometry x="163" y="610" width="308" height="33" as="geometry" />
        </mxCell>
        <mxCell id="QvntJBY5M-mogorxampG-12" value="Fin" style="whiteSpace=wrap;strokeWidth=2;" parent="1" vertex="1">
          <mxGeometry x="298.5" y="700" width="37" height="33" as="geometry" />
        </mxCell>
        <mxCell id="QvntJBY5M-mogorxampG-13" value="" style="curved=1;startArrow=none;endArrow=block;exitX=0.5009982674210159;exitY=1.0121212583599668;entryX=0.5002323553479952;entryY=0.012121258359966856;rounded=0;" parent="1" source="QvntJBY5M-mogorxampG-6" target="QvntJBY5M-mogorxampG-7" edge="1">
          <mxGeometry relative="1" as="geometry">
            <Array as="points" />
          </mxGeometry>
        </mxCell>
        <mxCell id="QvntJBY5M-mogorxampG-14" value="" style="curved=1;startArrow=none;endArrow=block;exitX=0.5002323553479952;exitY=1.0242425167199336;entryX=0.5;entryY=0;rounded=0;entryDx=0;entryDy=0;" parent="1" source="QvntJBY5M-mogorxampG-7" target="QvntJBY5M-mogorxampG-28" edge="1">
          <mxGeometry relative="1" as="geometry">
            <Array as="points" />
            <mxPoint x="205.05326086435116" y="212" as="targetPoint" />
          </mxGeometry>
        </mxCell>
        <mxCell id="QvntJBY5M-mogorxampG-15" value="Sí" style="curved=1;startArrow=none;endArrow=block;exitX=1;exitY=0.5;rounded=0;exitDx=0;exitDy=0;" parent="1" source="QvntJBY5M-mogorxampG-28" target="QvntJBY5M-mogorxampG-31" edge="1">
          <mxGeometry relative="1" as="geometry">
            <Array as="points" />
            <mxPoint x="178.14085808937648" y="244.9999999999999" as="sourcePoint" />
            <mxPoint x="170" y="400" as="targetPoint" />
          </mxGeometry>
        </mxCell>
        <mxCell id="QvntJBY5M-mogorxampG-16" value="No" style="curved=1;startArrow=none;endArrow=block;exitX=1;exitY=0.5;entryX=0.4994211196899414;entryY=-0.0121210849646366;rounded=0;exitDx=0;exitDy=0;" parent="1" source="QvntJBY5M-mogorxampG-28" target="QvntJBY5M-mogorxampG-8" edge="1">
          <mxGeometry relative="1" as="geometry">
            <Array as="points" />
            <mxPoint x="261.2316798704992" y="244.9999999999999" as="sourcePoint" />
          </mxGeometry>
        </mxCell>
        <mxCell id="QvntJBY5M-mogorxampG-17" value="" style="curved=1;startArrow=none;endArrow=block;exitX=0.4994211196899414;exitY=1.0000001733953303;entryX=0.5;entryY=0;rounded=0;entryDx=0;entryDy=0;" parent="1" source="QvntJBY5M-mogorxampG-8" target="QvntJBY5M-mogorxampG-9" edge="1">
          <mxGeometry relative="1" as="geometry">
            <Array as="points" />
          </mxGeometry>
        </mxCell>
        <mxCell id="QvntJBY5M-mogorxampG-18" value="" style="curved=1;startArrow=none;endArrow=block;exitX=0.49843475944117493;exitY=1.0121214317552971;entryX=0.5;entryY=0;rounded=0;entryDx=0;entryDy=0;" parent="1" source="QvntJBY5M-mogorxampG-9" target="QvntJBY5M-mogorxampG-29" edge="1">
          <mxGeometry relative="1" as="geometry">
            <Array as="points" />
            <mxPoint x="205.04282316512672" y="480" as="targetPoint" />
          </mxGeometry>
        </mxCell>
        <mxCell id="QvntJBY5M-mogorxampG-19" value="Sí" style="curved=1;startArrow=none;endArrow=block;exitX=1;exitY=0.5;entryX=0.0002888171608877365;entryY=0.1086752792369666;rounded=0;exitDx=0;exitDy=0;" parent="1" source="QvntJBY5M-mogorxampG-29" target="QvntJBY5M-mogorxampG-2" edge="1">
          <mxGeometry relative="1" as="geometry">
            <Array as="points">
              <mxPoint x="410" y="420" />
            </Array>
            <mxPoint x="301" y="496.5" as="sourcePoint" />
          </mxGeometry>
        </mxCell>
        <mxCell id="QvntJBY5M-mogorxampG-26" value="" style="curved=1;startArrow=none;endArrow=block;exitX=0.5006937392346271;exitY=1.0121216629490708;entryX=0.5;entryY=0;rounded=0;entryDx=0;entryDy=0;" parent="1" source="QvntJBY5M-mogorxampG-10" target="QvntJBY5M-mogorxampG-12" edge="1">
          <mxGeometry relative="1" as="geometry">
            <Array as="points" />
            <mxPoint x="391.2189804998891" y="1104" as="targetPoint" />
          </mxGeometry>
        </mxCell>
        <mxCell id="QvntJBY5M-mogorxampG-28" value="&lt;font style=&quot;vertical-align: inherit;&quot;&gt;&lt;font style=&quot;vertical-align: inherit;&quot;&gt;&lt;font style=&quot;vertical-align: inherit;&quot;&gt;&lt;font style=&quot;vertical-align: inherit;&quot;&gt;¿Hay más de 2 contratos iniciados?&lt;/font&gt;&lt;/font&gt;&lt;/font&gt;&lt;/font&gt;" style="rhombus;whiteSpace=wrap;html=1;" parent="1" vertex="1">
          <mxGeometry x="387.25" y="161" width="135.5" height="90" as="geometry" />
        </mxCell>
        <mxCell id="QvntJBY5M-mogorxampG-29" value="&lt;font style=&quot;vertical-align: inherit;&quot;&gt;&lt;font style=&quot;vertical-align: inherit;&quot;&gt;Incoherencia de fechas&lt;/font&gt;&lt;/font&gt;" style="rhombus;whiteSpace=wrap;html=1;" parent="1" vertex="1">
          <mxGeometry x="277" y="470" width="80" height="80" as="geometry" />
        </mxCell>
        <mxCell id="QvntJBY5M-mogorxampG-31" value="Emitir mensaje de exceso de proyectos" style="whiteSpace=wrap;strokeWidth=2;" parent="1" vertex="1">
          <mxGeometry x="670" y="190" width="261" height="33" as="geometry" />
        </mxCell>
        <mxCell id="QvntJBY5M-mogorxampG-32" value="No" style="curved=1;startArrow=none;endArrow=block;exitX=0.5;exitY=1;entryX=0.5;entryY=0;rounded=0;exitDx=0;exitDy=0;entryDx=0;entryDy=0;" parent="1" source="QvntJBY5M-mogorxampG-29" target="QvntJBY5M-mogorxampG-10" edge="1">
          <mxGeometry relative="1" as="geometry">
            <Array as="points" />
            <mxPoint x="533" y="216" as="sourcePoint" />
            <mxPoint x="242" y="300" as="targetPoint" />
          </mxGeometry>
        </mxCell>
        <mxCell id="QvntJBY5M-mogorxampG-33" value="" style="endArrow=classic;html=1;rounded=0;exitX=1;exitY=0.75;exitDx=0;exitDy=0;entryX=0;entryY=0.5;entryDx=0;entryDy=0;" parent="1" source="QvntJBY5M-mogorxampG-2" target="QvntJBY5M-mogorxampG-9" edge="1">
          <mxGeometry width="50" height="50" relative="1" as="geometry">
            <mxPoint x="950" y="429.9999999999999" as="sourcePoint" />
            <mxPoint x="108" y="397" as="targetPoint" />
            <Array as="points">
              <mxPoint x="950" y="373.5" />
              <mxPoint x="460" y="360" />
              <mxPoint x="60" y="380" />
            </Array>
          </mxGeometry>
        </mxCell>
      </root>
    </mxGraphModel>
  </diagram>
</mxfile>
